HIERARCHY
ROOT Hips
{
	OFFSET 0.000000 0.000000 0.000000 
	CHANNELS 6 Xposition Yposition Zposition Yrotation Zrotation Xrotation 
	JOINT Lumbar
	{
		OFFSET 0.000000 0.000000 0.000000 
		CHANNELS 3 Zrotation Xrotation Yrotation
		JOINT Neck
		{
			OFFSET 0.000000 0.445665 0.000000 
			CHANNELS 3 Zrotation Xrotation Yrotation
			End Site
			{
				OFFSET 0.000000 0.227535 0.000000 
			}
		}
		JOINT RightShoulder
		{
			OFFSET 0.019635 0.377685 0.194865 
			CHANNELS 3 Zrotation Xrotation Yrotation
			JOINT RightElbow
			{
				OFFSET 0.000000 -0.243375 0.000000 
				CHANNELS 2 Zrotation Yrotation
				JOINT RightWrist
				{
					OFFSET 0.000000 -0.264825 0.000000 
					CHANNELS 2 Zrotation Xrotation
					End Site
					{
						OFFSET 0.006600 -0.176220 0.000990 
					}
				}
			}
		}
		JOINT LeftShoulder
		{
			OFFSET 0.019635 0.377685 -0.194865 
			CHANNELS 3 Zrotation Xrotation Yrotation
			JOINT LeftElbow
			{
				OFFSET 0.000000 -0.243375 0.000000 
				CHANNELS 2 Zrotation Yrotation
				JOINT LeftWrist
				{
					OFFSET 0.000000 -0.264825 0.000000 
					CHANNELS 2 Zrotation Xrotation
					End Site
					{
						OFFSET 0.006600 -0.176220 -0.000990 
					}
				}
			}
		}
	}
	JOINT RightHip
	{
		OFFSET 0.052140 -0.069960 0.075570 
		CHANNELS 3 Zrotation Xrotation Yrotation
		JOINT RightKnee
		{
			OFFSET 0.000000 -0.402270 0.000000 
			CHANNELS 1 Zrotation
			JOINT RightAnkle
			{
				OFFSET 0.000000 -0.404085 0.000000 
				CHANNELS 3 Zrotation Xrotation Yrotation
				End Site
				{
					OFFSET 0.204105 -0.089430 0.008415 
				}
			}
		}
	}
	JOINT LeftHip
	{
		OFFSET 0.052140 -0.069960 -0.075570 
		CHANNELS 3 Zrotation Xrotation Yrotation
		JOINT LeftKnee
		{
			OFFSET 0.000000 -0.402270 0.000000 
			CHANNELS 1 Zrotation
			JOINT LeftAnkle
			{
				OFFSET 0.000000 -0.404085 0.000000 
				CHANNELS 3 Zrotation Xrotation Yrotation
				End Site
				{
					OFFSET 0.204105 -0.089430 -0.008415 
				}
			}
		}
	}
}
MOTION
Frames: 22
Frame Time: 0.02
0.68985 0.54801 -0.05177 181.7275 0 -3.94396 24.19325 4.3487 -3.50111 -43.63942 4.33869 7.24366 53.22656 -9.24164 55.21907 107.24878 107.91588 72.91578 -0.88037 46.19148 -7.33315 -55.17363 86.93619 -59.90693 62.67319 5.03915 76.85159 3.12942 -6.14556 -72.62072 -18.15196 -0.45309 -12.99051 76.97873 7.699 3.12887 -72.885 -11.96934 0.90532 17.21268
0.69019 0.54796 -0.05155 181.73292 0 -3.95153 24.17866 4.30272 -3.72172 -43.1499 4.4387 7.05877 52.59211 -9.00685 55.22036 107.20544 108.24622 73.10695 -0.85727 48.45558 -3.40514 -55.2536 92.51723 -62.29418 66.1743 7.96508 76.89033 3.08675 -6.12125 -72.63133 -18.27844 -0.4454 -12.81914 76.98509 7.64484 3.08032 -72.85774 -11.97997 0.90366 17.21353
0.69054 0.54794 -0.05132 181.73018 0 -3.95013 24.12875 4.24737 -3.99381 -42.49014 4.57551 6.84422 51.74017 -8.71899 55.22176 107.15159 108.71674 73.29232 -0.82424 51.21804 1.49229 -55.35549 99.51003 -65.10401 70.63863 11.69179 76.93641 3.05095 -6.0693 -72.64525 -18.45362 -0.43241 -12.60935 76.98062 7.60577 3.05603 -72.81923 -11.99338 0.90158 17.21435
0.69089 0.5479 -0.0511 181.73146 0 -3.95333 24.09965 4.1991 -4.23003 -41.917 4.6868 6.65192 50.99495 -8.46734 55.22304 107.10713 109.14043 73.44919 -0.79473 53.57018 5.67783 -55.4442 105.46436 -67.25143 74.53055 14.93853 76.97988 3.01192 -6.03185 -72.65832 -18.60469 -0.42187 -12.41981 76.98275 7.56121 3.02125 -72.78744 -12.00679 0.89955 17.21514
0.69124 0.5479 -0.05085 181.73226 0 -3.9547 24.05073 4.13942 -4.51915 -41.30472 4.83364 6.4229 50.21473 -8.16468 55.22462 107.04338 109.49179 73.72769 -0.76956 56.68329 10.98875 -55.54639 113.06336 -71.32206 78.99083 18.67101 77.02057 2.97252 -5.98651 -72.66904 -18.76489 -0.41101 -12.21787 76.97812 7.51002 2.98363 -72.74894 -12.01516 0.8981 17.21613
0.6916 0.54781 -0.05066 181.73182 0 -3.95756 24.03416 4.10088 -4.7114 -40.73151 4.91658 6.26271 49.45507 -7.95494 55.2256 107.01664 110.02279 73.75815 -0.73309 58.34781 14.21376 -55.62585 117.61389 -71.56501 82.49931 21.58671 77.06851 2.93581 -5.95088 -72.68522 -18.91707 -0.39972 -12.03282 76.98474 7.47646 2.9579 -72.72164 -12.03439 0.89538 17.21671
0.69195 0.54748 -0.05063 181.72976 0 -3.96736 24.12096 4.12575 -4.60881 -40.33326 4.80457 6.30605 48.82218 -8.02402 55.22488 107.10245 111.07251 73.06477 -0.6652 55.73703 11.18916 -55.63594 113.02531 -60.46575 83.10336 22.01078 77.13673 2.90511 -5.94948 -72.71632 -19.03854 -0.38731 -11.90437 77.02673 7.48894 2.95911 -72.72905 -12.08522 0.88895 17.21612
0.69231 0.54706 -0.05065 181.72662 0 -3.9788 24.24052 4.17175 -4.40929 -39.97582 4.62918 6.41871 48.21484 -8.18716 55.22354 107.22466 112.28751 72.12736 -0.58631 51.67924 6.07719 -55.62261 105.38788 -45.62272 82.72306 21.59245 77.21163 2.87699 -5.95862 -72.75264 -19.14961 -0.37486 -11.79424 77.08008 7.51855 2.97149 -72.74797 -12.14649 0.88129 17.21514
0.69266 0.5467 -0.05065 181.724 0 -3.98906 24.34162 4.20619 -4.26387 -39.5834 4.48872 6.49542 47.58524 -8.30085 55.22253 107.32502 113.39156 71.33296 -0.51462 48.38561 2.08779 -55.62083 99.39455 -32.93549 82.81987 21.58678 77.28209 2.84761 -5.96249 -72.78608 -19.26306 -0.36329 -11.67542 77.12707 7.53975 2.97886 -72.76094 -12.20141 0.8744 17.21438
0.69303 0.54629 -0.05065 181.72107 0 -4.00088 24.45674 4.24832 -4.07866 -39.25436 4.32235 6.58928 46.99288 -8.4396 55.22139 107.44681 114.65553 70.41527 -0.43496 44.66263 -2.59637 -55.61603 92.3666 -18.35345 82.82589 21.48466 77.35861 2.81868 -5.96751 -72.82173 -19.38786 -0.34801 -11.55675 77.17867 7.56418 2.98692 -72.77647 -12.26304 0.86667 17.21342
0.69337 0.54594 -0.05066 181.71852 0 -4.00992 24.5507 4.27988 -3.95161 -38.80527 4.19608 6.66499 46.33196 -8.55091 55.22026 107.53352 115.61905 69.68075 -0.36733 41.47985 -6.34898 -55.61162 86.74171 -6.81224 82.7732 21.37102 77.42415 2.78951 -5.97289 -72.85402 -19.48624 -0.34037 -11.44268 77.22359 7.58569 2.99568 -72.78965 -12.31335 0.86035 17.2128
0.69361 0.54578 -0.05067 181.7184 0 -4.0111 24.57996 4.27439 -4.01773 -38.01583 4.18178 6.66796 45.47611 -8.54914 55.21989 107.50799 115.756 69.65265 -0.35483 40.17791 -6.95844 -55.61451 85.81333 -4.69434 82.80657 21.44425 77.4563 2.75774 -5.97784 -72.87544 -19.51096 -0.35515 -11.33661 77.24673 7.59552 3.0053 -72.79295 -12.32781 0.85851 17.21317
0.69382 0.54568 -0.05069 181.71854 0 -4.00944 24.58667 4.2581 -4.14401 -37.10534 4.21258 6.65176 44.55153 -8.51952 55.2192 107.44732 115.57828 69.7949 -0.35218 39.46284 -6.57241 -55.61842 86.38185 -5.7531 82.80851 21.52865 77.47738 2.72585 -5.98274 -72.89336 -19.5097 -0.37742 -11.2348 77.26293 7.60163 3.01475 -72.79371 -12.33083 0.85808 17.21389
0.69405 0.54555 -0.05071 181.71786 0 -4.00896 24.60272 4.24855 -4.23644 -36.24974 4.23183 6.64784 43.65895 -8.5122 55.21861 107.40683 115.51258 69.76193 -0.33135 38.4506 -6.68907 -55.62142 86.20661 -5.27022 82.81527 21.59555 77.50441 2.69485 -5.98701 -72.91303 -19.52238 -0.39537 -11.13139 77.28273 7.609 3.02311 -72.79604 -12.34047 0.85681 17.21449
0.69427 0.54543 -0.05073 181.72007 0 -4.00893 24.62367 4.23191 -4.35219 -35.39388 4.21089 6.63011 42.76331 -8.46713 55.21921 107.34921 115.57446 70.11754 -0.36435 37.50724 -6.67411 -55.62547 86.18973 -5.02971 82.82866 21.6857 77.52783 2.66047 -5.99426 -72.93211 -19.52621 -0.41707 -11.02712 77.301 7.61883 3.03699 -72.79686 -12.34468 0.85629 17.21494
0.6945 0.5453 -0.05074 181.71637 0 -4.00733 24.62869 4.2273 -4.43592 -34.51193 4.2855 6.63712 41.85812 -8.49322 55.21597 107.31925 115.30513 69.72725 -0.29229 36.59056 -6.65918 -55.62791 86.2433 -5.13885 82.833 21.74134 77.55599 2.63301 -5.99531 -72.95163 -19.54183 -0.43287 -10.92546 77.32071 7.62237 3.03893 -72.80028 -12.35706 0.85459 17.21577
0.69473 0.54512 -0.05072 181.69603 0 -4.0016 24.59458 4.25738 -4.408 -33.56565 4.61059 6.70466 40.93964 -8.72015 55.2143 107.3669 114.09563 67.06945 0.11223 35.50579 -6.97349 -55.62544 86.09163 -5.00121 82.82723 21.69818 77.60053 2.62525 -5.97802 -72.97225 -19.60137 -0.42934 -10.82967 77.34555 7.60986 3.01009 -72.80956 -12.39726 0.84897 17.21758
0.69497 0.54492 -0.05068 181.66976 0 -3.99445 24.54522 4.29994 -4.34768 -32.60166 5.03101 6.79976 40.016 -9.02022 55.20714 107.44461 112.57971 63.68956 0.61568 34.45182 -7.29819 -55.62147 85.97966 -5.19575 82.81695 21.62411 77.65009 2.62438 -5.95468 -72.99355 -19.67279 -0.41981 -10.73638 77.37209 7.59103 2.96887 -72.82182 -12.44559 0.84218 17.21975
0.6952 0.54473 -0.05065 181.64643 0 -3.98833 24.50302 4.33758 -4.30849 -31.65938 5.4097 6.89007 39.09516 -9.28726 55.19381 107.51339 111.27336 60.74762 1.04711 33.45709 -7.54854 -55.61844 85.88799 -5.55525 82.80888 21.56897 77.69697 2.61993 -5.9349 -73.01516 -19.73547 -0.41382 -10.64198 77.39818 7.57467 2.93175 -72.83397 -12.48848 0.83615 17.22171
0.69545 0.54455 -0.05062 181.62217 0 -3.98061 24.45887 4.37214 -4.24502 -30.65334 5.78332 6.94704 38.16388 -9.55023 55.21455 107.56169 109.66857 57.33885 1.59091 32.17828 -8.04964 -55.61435 85.68879 -4.73103 82.79839 21.49343 77.74518 2.61721 -5.91172 -73.03415 -19.81122 -0.40473 -10.54741 77.4228 7.55969 2.90071 -72.84094 -12.5382 0.8292 17.22386
0.69566 0.54435 -0.05058 181.59831 0 -3.97575 24.41572 4.41563 -4.22273 -29.77981 6.1894 7.08029 37.26172 -9.84225 55.16616 107.65936 108.60505 54.74014 1.92624 31.48403 -8.05594 -55.61208 85.69882 -6.35811 82.79245 21.45253 77.79188 2.6127 -5.89414 -73.05868 -19.86308 -0.40051 -10.45402 77.45083 7.54062 2.8545 -72.85925 -12.57595 0.82386 17.2257
0.69574 0.54407 -0.05052 181.57825 0 -3.9806 24.37679 4.48572 -4.32998 -29.2572 6.66279 7.41687 36.37433 -10.17133 54.90089 107.89383 109.21469 54.45257 1.64491 32.45654 -6.58814 -55.61549 86.31791 -15.11457 82.80126 21.52006 77.83401 2.60017 -5.89397 -73.09951 -19.8448 -0.41172 -10.36069 77.48916 7.50961 2.76572 -72.90955 -12.57714 0.82343 17.22662
